# xmcd CD database file
#
# Track frame offsets:
#	150
#	15793
#	26228
#	37728
#	48280
#	70990
#	83415
#	101118
#	113540
#	127453
#	136568
#
# Disc length: 2026 seconds
#
# Revision: 6
# Processed by: cddbd v1.5.2PL0 Copyright (c) Steve Scherf et al.
# Submitted via: CDex 1.70beta3
#
DISCID=8007e80b
DTITLE=The J. Geils Band - The J. Geils Band
DYEAR=1970
DGENRE=Rock
TTITLE0=Wait
TTITLE1=Ice Breaker (For the Big "M")
TTITLE2=Cruisin' for a Love
TTITLE3=Hard Drivin' Man
TTITLE4=Serves You Right to Suffer
TTITLE5=Homework
TTITLE6=First I Look at the Purse
TTITLE7=What's Your Hurry
TTITLE8=On Borrowed Time
TTITLE9=Pack Fair and Square
TTITLE10=Sno-Cone
EXTD=YEAR: 1970
EXTT0=
EXTT1=
EXTT2=
EXTT3=
EXTT4=
EXTT5=
EXTT6=
EXTT7=
EXTT8=
EXTT9=
EXTT10=
PLAYORDER=
